<?xml version="1.0" encoding="UTF-8" standalone="no"?><!DOCTYPE svg PUBLIC "-//W3C//DTD SVG 1.1//EN" "http://www.w3.org/Graphics/SVG/1.1/DTD/svg11.dtd"><svg width="100%" height="100%" viewBox="0 0 26 19" version="1.1" xmlns="http://www.w3.org/2000/svg" xmlns:xlink="http://www.w3.org/1999/xlink" xml:space="preserve" xmlns:serif="http://www.serif.com/" style="fill-rule:evenodd;clip-rule:evenodd;stroke-linejoin:round;stroke-miterlimit:2;"><g><path d="M5.252,5.736c1.394,-3.366 4.711,-5.736 8.577,-5.736c5.122,-0 9.28,4.158 9.28,9.28c0,0.075 -0.001,0.15 -0.002,0.224c1.656,0.736 2.813,2.397 2.813,4.325c0,2.611 -2.12,4.731 -4.731,4.731l-14.72,0c-3.57,0 -6.469,-2.899 -6.469,-6.469c0,-3.155 2.262,-5.785 5.252,-6.355Z" style="fill:#282828;"/><path d="M6.469,16.64c-2.51,0 -4.549,-2.039 -4.549,-4.549c0,-2.511 2.039,-4.55 4.549,-4.55c0.069,0 0.138,0.002 0.206,0.005c0.781,-3.227 3.69,-5.626 7.154,-5.626c4.062,0 7.36,3.298 7.36,7.36c0,0.602 -0.072,1.187 -0.208,1.746c0.069,-0.005 0.138,-0.007 0.208,-0.007c1.552,-0 2.811,1.259 2.811,2.81c0,1.552 -1.259,2.811 -2.811,2.811l-14.72,0Zm10.838,-6.121c-0.592,-0 -1.072,0.779 -1.072,1.738c0,0.96 0.48,1.739 1.072,1.739c0.591,0 1.072,-0.779 1.072,-1.739c-0,-0.959 -0.481,-1.738 -1.072,-1.738Zm-3.22,-0c-0.592,-0 -1.072,0.779 -1.072,1.738c0,0.96 0.48,1.739 1.072,1.739c0.592,0 1.072,-0.779 1.072,-1.739c-0,-0.959 -0.48,-1.738 -1.072,-1.738Z" style="fill:#87d3f8;"/></g></svg>