<?xml version="1.0" encoding="UTF-8" standalone="no"?><!DOCTYPE svg PUBLIC "-//W3C//DTD SVG 1.1//EN" "http://www.w3.org/Graphics/SVG/1.1/DTD/svg11.dtd"><svg width="100%" height="100%" viewBox="0 0 295 281" version="1.1" xmlns="http://www.w3.org/2000/svg" xmlns:xlink="http://www.w3.org/1999/xlink" xml:space="preserve" xmlns:serif="http://www.serif.com/" style="fill-rule:evenodd;clip-rule:evenodd;stroke-linejoin:round;stroke-miterlimit:2;"><g><path d="M55.052,231.475c-24.785,5.08 -49.031,-10.918 -54.111,-35.702c-5.08,-24.785 10.918,-49.031 35.702,-54.111c0.681,-0.14 1.361,-0.263 2.041,-0.371c1.177,-33.427 25.035,-62.996 59.236,-70.006c40.096,-8.219 79.322,17.662 87.54,57.758c1.217,5.939 1.687,11.859 1.472,17.662c0.671,-0.19 1.353,-0.356 2.046,-0.498c15.312,-3.139 30.291,6.744 33.43,22.056c3.138,15.312 -6.745,30.292 -22.057,33.43l-145.299,29.782Zm76.812,-49.758c0.822,-3.214 0.915,-7.076 0.093,-11.084c-1.941,-9.472 -8.258,-16.191 -14.098,-14.994c-5.839,1.197 -9.003,9.859 -7.062,19.332c0.822,4.007 2.426,7.521 4.446,10.152c1.435,-2.854 4.115,-5.047 7.484,-5.738c3.369,-0.69 6.695,0.272 9.137,2.332Zm31.784,-6.515c0.822,-3.213 0.914,-7.076 0.093,-11.083c-1.942,-9.473 -8.259,-16.192 -14.098,-14.995c-5.839,1.197 -9.004,9.859 -7.062,19.332c0.821,4.007 2.426,7.522 4.446,10.153c1.434,-2.854 4.114,-5.048 7.483,-5.738c3.369,-0.691 6.696,0.272 9.138,2.331Z" style="fill:#282828;"/><path d="M100.465,262.149c0.239,0.815 0.037,1.732 -0.605,2.374c-0.937,0.937 -2.458,0.937 -3.395,0l-0.499,-0.727l-0.262,-1.008c-0.388,-2.372 -1.745,-13.773 -1.964,-16.625c-2.012,-26.153 -0.973,-39.239 -1.624,-47.7c-0.102,-1.32 0.888,-2.475 2.209,-2.577c1.32,-0.101 2.475,0.888 2.577,2.209c0.651,8.461 -0.388,21.547 1.624,47.7c0.214,2.782 1.536,13.903 1.915,16.216c0.007,0.045 0.017,0.097 0.024,0.138Z" style="fill:#282828;"/><path d="M95.871,260.947c-0.592,-1.184 -0.111,-2.627 1.074,-3.219c1.184,-0.593 2.627,-0.112 3.22,1.073c0.185,0.37 0.635,0.677 1.17,1.046c1.312,0.902 3.16,1.788 5.187,2.676c3.295,1.444 7.042,2.864 9.984,4.24c2.264,1.058 4.086,2.142 5.093,3.149c0.936,0.936 0.936,2.457 -0,3.394c-0.937,0.936 -2.458,0.936 -3.395,-0c-0.728,-0.728 -2.094,-1.43 -3.731,-2.195c-2.91,-1.361 -6.618,-2.763 -9.877,-4.191c-2.343,-1.026 -4.465,-2.075 -5.981,-3.118c-1.351,-0.93 -2.277,-1.922 -2.744,-2.855Z" style="fill:#282828;"/><path d="M95.372,261.437c-0.321,-1.285 0.462,-2.589 1.747,-2.91c1.285,-0.321 2.589,0.461 2.91,1.746c2.126,8.504 3.563,8.324 5.671,15.059c0.396,1.264 -0.309,2.612 -1.573,3.007c-1.265,0.396 -2.612,-0.309 -3.008,-1.573c-2.145,-6.852 -3.584,-6.677 -5.747,-15.329Z" style="fill:#282828;"/><path d="M92.796,259.162c0.218,-1.306 1.456,-2.19 2.762,-1.972c1.307,0.217 2.191,1.455 1.973,2.762c-0.405,2.43 -7.698,17.854 -8.15,18.756c-0.592,1.185 -2.035,1.666 -3.22,1.073c-1.184,-0.592 -1.665,-2.035 -1.073,-3.22c0.42,-0.839 7.331,-15.137 7.708,-17.399Z" style="fill:#282828;"/><path d="M137.165,206.275c-0,-1.324 1.075,-2.4 2.4,-2.4c1.325,0 2.4,1.076 2.4,2.4c-0,29.869 -0.348,38.91 2.465,50.163c0.322,1.285 -0.461,2.589 -1.746,2.91c-1.285,0.321 -2.589,-0.461 -2.91,-1.746c-2.879,-11.515 -2.609,-20.762 -2.609,-51.327Z" style="fill:#282828;"/><path d="M139.794,256.36c0.364,-1.273 1.694,-2.012 2.967,-1.648c1.274,0.364 2.013,1.693 1.649,2.967c-0.335,1.172 -2.546,3.743 -7.01,17.135c-0.419,1.257 -1.779,1.937 -3.036,1.518c-1.257,-0.419 -1.937,-1.779 -1.518,-3.036c4.414,-13.242 6.617,-15.777 6.948,-16.936Z" style="fill:#282828;"/><path d="M140.777,259.047c-0.419,-1.256 0.261,-2.617 1.518,-3.035c1.256,-0.419 2.617,0.261 3.035,1.517c3.455,10.365 9.553,15.926 10.45,16.823c0.937,0.937 0.937,2.457 0,3.394c-0.937,0.937 -2.457,0.937 -3.394,-0c-0.997,-0.997 -7.77,-7.18 -11.609,-18.699Z" style="fill:#282828;"/><path d="M141.242,259.429c-1.154,-0.65 -1.564,-2.115 -0.914,-3.269c0.649,-1.154 2.114,-1.564 3.268,-0.915c10.885,6.126 12.797,6.362 22.345,11.053c1.189,0.584 1.68,2.024 1.096,3.213c-0.584,1.188 -2.023,1.679 -3.212,1.095c-9.652,-4.742 -11.58,-4.986 -22.583,-11.177Z" style="fill:#282828;"/><path d="M215.613,85.746c-0.676,-1.139 -0.299,-2.612 0.84,-3.288c1.139,-0.676 2.613,-0.299 3.289,0.84c0.354,0.598 1.08,1.143 2.005,1.69c1.822,1.076 4.374,1.983 7.284,2.535c6.871,1.302 15.775,0.638 22.068,-5.051c4.215,-3.811 7.181,-9.862 7.712,-18.932c1.185,-20.252 -20.162,-34.655 -39.715,-26.782c-7.158,2.883 -11.74,6.987 -14.299,11.632c-5.909,10.727 -1.066,24.093 6.467,30.336c1.02,0.846 1.162,2.36 0.316,3.38c-0.845,1.02 -2.359,1.161 -3.379,0.316c-9.019,-7.475 -14.683,-23.505 -7.608,-36.348c3.005,-5.456 8.302,-10.383 16.71,-13.768c22.862,-9.206 47.685,7.836 46.299,31.514c-0.625,10.682 -4.32,17.725 -9.284,22.213c-7.479,6.761 -18.014,7.754 -26.181,6.206c-3.534,-0.67 -6.619,-1.812 -8.831,-3.118c-1.765,-1.043 -3.016,-2.234 -3.693,-3.375Z" style="fill:#282828;"/><path d="M187.264,44.767c-1.892,-4.346 -7.114,-17.798 -7.658,-19.976l-0.075,-1.228l0.171,-0.677l0.324,-0.622l0.7,-0.734l1.066,-0.555c0.979,-0.331 2.745,-0.382 4.942,-0.093c4.253,0.557 10.547,2.195 14.715,3.056c0.692,0.142 1.435,0.259 2.019,0.343c1.438,-4.216 3.124,-9.119 5.633,-21.662l0.202,-0.677l0.391,-0.703l0.619,-0.63l0.772,-0.427l0.747,-0.182l0.964,0.016c0.511,0.075 1.126,0.275 1.808,0.63c4.606,2.403 14.988,14.317 14.988,14.317c0.865,1.003 0.752,2.52 -0.251,3.384c-1.003,0.865 -2.52,0.753 -3.385,-0.251c0,0 -5.439,-6.316 -9.981,-10.423c-0.798,-0.721 -1.803,-1.469 -2.592,-2.025c-2.65,12.834 -4.375,17.168 -5.892,21.72l-0.534,0.914l-0.396,0.357l-0.542,0.309l-0.996,0.248c-0.287,0.029 -0.657,0.033 -1.098,0c-2.645,-0.197 -9.394,-2.013 -14.834,-3.059c-1.579,-0.303 -3.037,-0.54 -4.218,-0.628c1.642,4.665 5.889,15.436 7.087,18c0.017,0.037 0.038,0.079 0.057,0.119l0.085,0.091l0.428,0.889l0.084,0.678l-0.066,0.562l-0.445,1.009c-0.449,0.664 -2.01,1.914 -4.153,3.229c-2.957,1.815 -7.082,4.019 -9.697,5.379c0.235,0.222 0.482,0.445 0.724,0.647c4.721,3.925 14.172,9.781 14.831,10.111l0.469,0.302l0.396,0.401l0.449,0.865l0.115,0.917l-0.263,1.213c-0.962,2.606 -7.446,11.236 -11.115,16.008c6.567,1.015 19.164,2.971 22.366,3.528c0.706,0.123 1.121,0.24 1.196,0.268l0.698,0.414l0.462,0.524l0.35,0.887l-0.001,0.846c-0.509,2.823 -1.945,7.141 -3.544,11.59c6.559,-1.228 15.057,-4.14 19.006,-4.699c1.356,-0.192 2.381,-0.1 2.977,0.109l1.043,0.611l0.632,0.829c0.386,0.772 1.922,4.937 2.818,7.216c1.121,-0.549 2.727,-1.367 4.111,-2.19c6.219,-3.697 14.414,-9.32 14.414,-9.32c0.824,-0.565 1.911,-0.561 2.73,0.01l12.86,8.959c2.048,-8.967 -0.062,-16.583 -0.594,-19.813c-0.173,-1.052 -0.178,-1.83 -0.089,-2.287l0.375,-0.978l0.695,-0.756l0.569,-0.313l0.682,-0.175c0.395,-0.055 1.294,-0.054 2.52,0.028c3.126,0.21 8.939,0.868 12.915,1.2c-3.416,-5.415 -9.73,-14.947 -9.962,-15.178l-0.479,-0.631l-0.29,-0.732l-0.086,-0.833l0.18,-0.983c0.311,-0.941 1.404,-2.405 3.105,-3.98c2.863,-2.652 7.508,-6.014 10.928,-8.317l-15.201,-6.381c-0.616,-0.258 -1.096,-0.762 -1.325,-1.39c-0.23,-0.628 -0.186,-1.323 0.119,-1.918l7.383,-14.398c-5.461,0.907 -14.464,2.148 -21.208,1.81c-0.683,-0.034 -1.32,-0.358 -1.749,-0.892c-0.386,-0.479 -0.572,-1.087 -0.523,-1.696c-0.001,-0.035 -0.003,-0.094 -0.006,-0.14c-0.111,-2.025 -1.158,-9.821 -2.384,-14.359c-0.081,-0.301 -0.185,-0.623 -0.29,-0.928c-6.46,3.531 -10.562,7.435 -13.14,9.868c-1.491,1.406 -2.607,2.369 -3.375,2.753c-1.184,0.593 -2.627,0.112 -3.22,-1.073c-0.592,-1.185 -0.111,-2.628 1.074,-3.22c0.522,-0.261 1.213,-0.995 2.226,-1.951c3.027,-2.856 8.018,-7.578 16.114,-11.625l0.672,-0.235l0.749,-0.051l0.692,0.138l0.552,0.253c0.556,0.33 1.327,1.186 1.887,2.638c1.336,3.461 2.635,11.785 3.078,15.78c9.76,0.028 22.721,-2.648 22.721,-2.648c0.904,-0.185 1.835,0.164 2.393,0.899c0.559,0.736 0.646,1.726 0.225,2.548l-8.418,16.414l17.051,7.157c0.865,0.363 1.439,1.197 1.47,2.134c0.031,0.937 -0.487,1.807 -1.325,2.226c-1.524,0.762 -9.742,6.267 -13.909,10.126c-0.507,0.47 -1.051,1.084 -1.411,1.507c2.626,3.854 10.235,15.321 11.767,18.074c0.273,0.491 0.413,0.846 0.462,1.013l0.1,0.578l-0.029,0.541l-0.167,0.564l-0.265,0.463l-0.804,0.701l-0.939,0.305c-0.399,0.062 -1.21,0.08 -2.305,0.022c-3.548,-0.187 -10.917,-1.042 -14.841,-1.331c0.107,0.614 0.23,1.311 0.352,1.982c0.912,5.006 1.952,13.147 -1.048,22.147c-0.239,0.718 -0.803,1.281 -1.521,1.519c-0.718,0.239 -1.507,0.124 -2.128,-0.308l-14.275,-9.945c-3.593,2.425 -13.303,8.889 -17.935,11.102c-1.463,0.699 -2.617,0.986 -3.218,0.977l-0.858,-0.136l-0.738,-0.366l-0.589,-0.576l-0.38,-0.731l-0.132,-0.72l0.001,-0.015c-0.62,-1.506 -1.911,-4.992 -2.655,-6.866c-1.264,0.231 -3.938,0.748 -6.272,1.383c-5.507,1.5 -12.4,3.5 -17.024,3.8c-0.811,0.053 -1.593,-0.308 -2.079,-0.96c-0.486,-0.651 -0.61,-1.504 -0.328,-2.266c1.575,-4.269 3.224,-8.777 4.141,-12.165c-6.696,-1.095 -24.565,-3.844 -24.565,-3.844c-0.845,-0.13 -1.557,-0.701 -1.869,-1.497c-0.312,-0.797 -0.177,-1.699 0.355,-2.369l12.117,-16.852c-3.977,-2.479 -12.752,-8.194 -15.735,-11.306c-0.703,-0.733 -1.152,-1.402 -1.37,-1.912l-0.232,-0.781l-0.035,-0.694l0.144,-0.722l0.361,-0.706l0.517,-0.553l0.552,-0.356c1.401,-0.701 7.56,-3.867 11.538,-6.308c0.632,-0.388 1.304,-0.854 1.825,-1.228Zm4.208,25.645c0.061,0.037 0.124,0.072 0.189,0.104c-0.037,-0.019 -0.101,-0.054 -0.189,-0.104Zm36.43,40.248l0.031,-0.378c-0.024,0.128 -0.033,0.254 -0.031,0.378Zm0.218,0.868c0.007,0.013 0.013,0.026 0.019,0.038c-0.006,-0.012 -0.012,-0.024 -0.019,-0.038Zm48.718,-47.191c-0.088,-0.179 -0.207,-0.343 -0.355,-0.492c0.029,0.029 0.153,0.202 0.355,0.492Zm-44.164,46.42l-0.025,0.418c0.025,-0.141 0.032,-0.28 0.025,-0.418Zm-41.458,-67.782c-0.021,-0.015 -0.037,-0.027 -0.048,-0.032l0.048,0.032Zm-2.942,3.661c0.068,0.087 0.144,0.17 0.23,0.249l-0.23,-0.249Zm0.259,0.275c0.137,0.121 0.298,0.23 0.488,0.325l-0.488,-0.325Z" style="fill:#282828;"/><path d="M55.227,231.475c-24.785,5.08 -49.031,-10.918 -54.111,-35.702c-5.08,-24.785 10.918,-49.031 35.702,-54.111c0.681,-0.14 1.362,-0.263 2.041,-0.371c1.177,-33.427 25.035,-62.996 59.236,-70.006c40.096,-8.219 79.322,17.662 87.54,57.758c1.218,5.939 1.687,11.859 1.473,17.662c0.67,-0.19 1.352,-0.356 2.045,-0.498c15.312,-3.139 30.292,6.744 33.43,22.056c3.138,15.312 -6.745,30.292 -22.057,33.43l-145.299,29.782Zm108.596,-56.273c0.822,-3.213 0.914,-7.076 0.093,-11.083c-1.942,-9.473 -8.259,-16.192 -14.098,-14.995c-5.839,1.197 -9.004,9.859 -7.062,19.332c0.821,4.007 2.426,7.522 4.446,10.153c1.434,-2.854 4.114,-5.048 7.483,-5.738c3.369,-0.691 6.696,0.272 9.138,2.331Zm-31.784,6.515c0.823,-3.214 0.915,-7.076 0.094,-11.084c-1.942,-9.472 -8.259,-16.191 -14.098,-14.994c-5.84,1.197 -9.004,9.859 -7.062,19.332c0.821,4.007 2.425,7.521 4.445,10.152c1.435,-2.854 4.115,-5.047 7.484,-5.738c3.369,-0.69 6.696,0.272 9.137,2.332Z" style="fill:#282828;"/></g></svg>