<?xml version="1.0" encoding="UTF-8" standalone="no"?><!DOCTYPE svg PUBLIC "-//W3C//DTD SVG 1.1//EN" "http://www.w3.org/Graphics/SVG/1.1/DTD/svg11.dtd"><svg width="100%" height="100%" viewBox="0 0 324 207" version="1.1" xmlns="http://www.w3.org/2000/svg" xmlns:xlink="http://www.w3.org/1999/xlink" xml:space="preserve" xmlns:serif="http://www.serif.com/" style="fill-rule:evenodd;clip-rule:evenodd;stroke-linejoin:round;stroke-miterlimit:2;"><g><path d="M38.697,135.857c-24.99,-3.945 -42.076,-27.437 -38.131,-52.427c3.946,-24.991 27.438,-42.076 52.428,-38.131c0.686,0.108 1.367,0.231 2.041,0.369c12.838,-30.886 45.559,-50.196 80.044,-44.752c40.429,6.383 68.071,44.388 61.688,84.818c-0.945,5.988 -2.584,11.695 -4.822,17.053c0.694,0.058 1.391,0.142 2.09,0.252c15.439,2.438 25.995,16.951 23.558,32.39c-2.438,15.439 -16.951,25.995 -32.39,23.557l-146.506,-23.129Zm117.483,-43.896c-5.888,-0.93 -11.892,6.07 -13.4,15.621c-1.508,9.551 2.048,18.06 7.936,18.99c5.887,0.929 11.892,-6.07 13.4,-15.622c1.507,-9.551 -2.048,-18.06 -7.936,-18.989Zm-32.047,-5.06c-5.888,-0.929 -11.893,6.07 -13.4,15.622c-1.508,9.551 2.048,18.06 7.935,18.99c5.888,0.929 11.892,-6.071 13.4,-15.622c1.508,-9.551 -2.048,-18.06 -7.935,-18.99Z" style="fill:#282828;"/><path d="M90.576,189.069c0.239,0.815 0.037,1.732 -0.606,2.375c-0.936,0.936 -2.457,0.936 -3.394,-0l-0.499,-0.727l-0.262,-1.009c-0.388,-2.371 -1.745,-13.772 -1.964,-16.624c-2.012,-26.153 -0.973,-39.24 -1.624,-47.7c-0.102,-1.321 0.888,-2.475 2.209,-2.577c1.32,-0.102 2.475,0.888 2.577,2.209c0.65,8.46 -0.388,21.547 1.624,47.7c0.214,2.782 1.536,13.903 1.915,16.216c0.007,0.045 0.017,0.097 0.024,0.137Z" style="fill:#282828;"/><path d="M85.982,187.868c-0.592,-1.185 -0.111,-2.627 1.074,-3.22c1.184,-0.592 2.627,-0.111 3.219,1.074c0.185,0.37 0.636,0.677 1.171,1.046c1.312,0.902 3.16,1.788 5.187,2.676c3.295,1.443 7.042,2.864 9.983,4.239c2.265,1.059 4.086,2.142 5.093,3.149c0.937,0.937 0.937,2.458 0,3.395c-0.936,0.936 -2.457,0.936 -3.394,-0c-0.728,-0.729 -2.094,-1.43 -3.732,-2.196c-2.909,-1.36 -6.617,-2.763 -9.876,-4.19c-2.343,-1.026 -4.465,-2.076 -5.981,-3.119c-1.351,-0.929 -2.277,-1.921 -2.744,-2.854Z" style="fill:#282828;"/><path d="M85.483,188.358c-0.321,-1.285 0.462,-2.589 1.747,-2.91c1.285,-0.321 2.589,0.461 2.91,1.746c2.126,8.504 3.563,8.324 5.671,15.059c0.396,1.264 -0.309,2.611 -1.574,3.007c-1.264,0.396 -2.611,-0.309 -3.007,-1.573c-2.145,-6.852 -3.584,-6.678 -5.747,-15.329Z" style="fill:#282828;"/><path d="M82.907,186.083c0.218,-1.306 1.455,-2.19 2.762,-1.973c1.307,0.218 2.191,1.456 1.973,2.762c-0.405,2.43 -7.699,17.854 -8.15,18.757c-0.592,1.184 -2.035,1.665 -3.22,1.073c-1.184,-0.592 -1.665,-2.035 -1.073,-3.22c0.42,-0.839 7.331,-15.138 7.708,-17.399Z" style="fill:#282828;"/><path d="M127.276,133.196c-0,-1.324 1.075,-2.4 2.4,-2.4c1.324,0 2.4,1.076 2.4,2.4c-0,29.869 -0.348,38.91 2.465,50.162c0.322,1.285 -0.461,2.59 -1.746,2.911c-1.285,0.321 -2.589,-0.461 -2.91,-1.746c-2.879,-11.515 -2.609,-20.762 -2.609,-51.327Z" style="fill:#282828;"/><path d="M129.905,183.281c0.364,-1.273 1.694,-2.012 2.967,-1.648c1.274,0.364 2.013,1.693 1.649,2.967c-0.335,1.172 -2.546,3.743 -7.01,17.135c-0.419,1.257 -1.779,1.937 -3.036,1.518c-1.257,-0.419 -1.937,-1.779 -1.518,-3.036c4.414,-13.242 6.617,-15.777 6.948,-16.936Z" style="fill:#282828;"/><path d="M130.888,185.968c-0.419,-1.257 0.261,-2.617 1.518,-3.036c1.256,-0.419 2.616,0.262 3.035,1.518c3.455,10.365 9.553,15.926 10.45,16.823c0.937,0.936 0.937,2.457 -0,3.394c-0.937,0.936 -2.458,0.936 -3.394,-0c-0.997,-0.997 -7.77,-7.18 -11.609,-18.699Z" style="fill:#282828;"/><path d="M131.353,186.349c-1.154,-0.649 -1.564,-2.114 -0.914,-3.268c0.649,-1.155 2.114,-1.565 3.268,-0.915c10.885,6.126 12.797,6.361 22.345,11.053c1.189,0.584 1.68,2.023 1.096,3.212c-0.584,1.189 -2.024,1.68 -3.212,1.096c-9.652,-4.742 -11.581,-4.986 -22.583,-11.178Z" style="fill:#282828;"/><path d="M267.822,100.798c0.158,-1.315 1.353,-2.255 2.668,-2.098c1.316,0.157 2.256,1.353 2.098,2.668c-4.538,37.92 -2.743,69.506 1.67,98.473c0.199,1.31 -0.702,2.535 -2.011,2.735c-1.31,0.199 -2.535,-0.702 -2.734,-2.012c-4.472,-29.348 -6.289,-61.349 -1.691,-99.766Z" style="fill:#282828;"/><path d="M311.564,111.835c-1.316,-0.146 -2.267,-1.333 -2.121,-2.65c0.146,-1.317 1.333,-2.267 2.65,-2.121l2.544,0.282c1.481,0.163 2.922,-0.542 3.701,-1.812c0.778,-1.27 0.753,-2.875 -0.065,-4.12l-0.007,-0.012c-14.509,-22.375 -28.344,-47.778 -41.13,-77.892l-0.001,-0.003c-0.497,-1.175 -1.546,-2.027 -2.799,-2.272c-1.251,-0.245 -2.542,0.146 -3.446,1.044c-19.713,19.853 -34.194,44.279 -46.603,70.523c-0.509,1.079 -0.488,2.334 0.058,3.396c0.546,1.062 1.555,1.809 2.729,2.023c19.843,3.616 70.034,12.759 70.034,12.759c1.303,0.238 2.169,1.489 1.931,2.792c-0.237,1.303 -1.488,2.168 -2.791,1.931c0,-0 -50.191,-9.143 -70.034,-12.759c-2.642,-0.482 -4.91,-2.163 -6.137,-4.551c-1.228,-2.388 -1.277,-5.211 -0.131,-7.64l0.001,-0.002c12.649,-26.751 27.447,-51.624 47.543,-71.86l0.009,-0.009c2.034,-2.026 4.943,-2.91 7.76,-2.358c2.818,0.553 5.178,2.469 6.295,5.11c12.665,29.828 26.365,54.99 40.736,77.152c1.834,2.799 1.889,6.404 0.14,9.256c-1.75,2.856 -4.992,4.443 -8.321,4.074l-2.545,-0.281Z" style="fill:#282828;"/><path d="M264.81,45.909l17.76,2.64c0.94,0.14 1.709,0.821 1.961,1.737c0.253,0.916 -0.059,1.894 -0.795,2.496c-6.822,5.573 -10.258,16.108 -13.742,23.199c-0.468,0.952 -1.504,1.484 -2.549,1.309c-1.045,-0.174 -1.853,-1.013 -1.986,-2.065l-3.382,-26.64c-0.095,-0.745 0.165,-1.492 0.702,-2.017c0.536,-0.526 1.288,-0.769 2.031,-0.659Zm2.427,5.214l1.932,15.211c2.19,-4.743 4.701,-9.753 8.008,-13.734l-9.94,-1.477Z" style="fill:#282828;"/><path d="M271.939,88.054l-0.108,0.449c-0.534,2.214 -2.209,3.974 -4.395,4.615c-2.185,0.642 -4.546,0.067 -6.192,-1.506l-0.001,-0.001c-1.77,-1.692 -2.446,-4.233 -1.751,-6.581c0.695,-2.349 2.645,-4.112 5.051,-4.568l0.143,-0.027c2.089,-0.397 4.236,0.294 5.702,1.834c1.465,1.54 2.05,3.718 1.551,5.785Zm-4.666,-1.125c0.117,-0.483 -0.02,-0.991 -0.362,-1.35c-0.342,-0.36 -0.843,-0.521 -1.33,-0.428l-0.144,0.027c-0.639,0.121 -1.157,0.59 -1.342,1.214c-0.185,0.624 -0.005,1.3 0.465,1.75l0.001,0c0.405,0.387 0.986,0.529 1.523,0.371c0.537,-0.158 0.95,-0.591 1.081,-1.136l0.108,-0.448Z" style="fill:#282828;"/></g></svg>