<?xml version="1.0" encoding="UTF-8" standalone="no"?><!DOCTYPE svg PUBLIC "-//W3C//DTD SVG 1.1//EN" "http://www.w3.org/Graphics/SVG/1.1/DTD/svg11.dtd"><svg width="100%" height="100%" viewBox="0 0 296 289" version="1.1" xmlns="http://www.w3.org/2000/svg" xmlns:xlink="http://www.w3.org/1999/xlink" xml:space="preserve" xmlns:serif="http://www.serif.com/" style="fill-rule:evenodd;clip-rule:evenodd;stroke-linejoin:round;stroke-miterlimit:2;"><g><path d="M97.751,270.341c0.239,0.815 0.037,1.732 -0.605,2.375c-0.937,0.936 -2.458,0.936 -3.394,-0l-0.5,-0.727l-0.261,-1.009c-0.389,-2.371 -1.745,-13.772 -1.965,-16.624c-2.012,-26.153 -0.973,-39.24 -1.624,-47.7c-0.101,-1.321 0.888,-2.475 2.209,-2.577c1.321,-0.102 2.476,0.888 2.577,2.209c0.651,8.46 -0.388,21.547 1.624,47.7c0.214,2.782 1.537,13.903 1.916,16.216c0.007,0.045 0.016,0.097 0.023,0.137Z" style="fill:#282828;"/><path d="M93.158,269.14c-0.593,-1.185 -0.112,-2.627 1.073,-3.22c1.185,-0.592 2.628,-0.111 3.22,1.074c0.185,0.369 0.635,0.677 1.171,1.046c1.312,0.902 3.159,1.788 5.186,2.676c3.295,1.443 7.042,2.864 9.984,4.239c2.264,1.059 4.086,2.142 5.093,3.149c0.937,0.937 0.937,2.458 -0,3.395c-0.937,0.936 -2.458,0.936 -3.394,-0c-0.728,-0.729 -2.095,-1.43 -3.732,-2.196c-2.91,-1.36 -6.617,-2.763 -9.877,-4.19c-2.342,-1.027 -4.464,-2.076 -5.98,-3.119c-1.351,-0.929 -2.278,-1.921 -2.744,-2.854Z" style="fill:#282828;"/><path d="M92.659,269.63c-0.321,-1.285 0.461,-2.589 1.746,-2.91c1.285,-0.322 2.589,0.461 2.911,1.746c2.125,8.504 3.562,8.324 5.67,15.059c0.396,1.264 -0.309,2.611 -1.573,3.007c-1.264,0.396 -2.612,-0.309 -3.007,-1.573c-2.145,-6.852 -3.584,-6.678 -5.747,-15.329Z" style="fill:#282828;"/><path d="M90.083,267.355c0.217,-1.306 1.455,-2.19 2.762,-1.973c1.306,0.218 2.19,1.456 1.972,2.762c-0.405,2.43 -7.698,17.854 -8.149,18.757c-0.593,1.184 -2.035,1.665 -3.22,1.073c-1.185,-0.592 -1.666,-2.035 -1.073,-3.22c0.419,-0.84 7.331,-15.138 7.708,-17.399Z" style="fill:#282828;"/><path d="M134.451,214.468c0,-1.325 1.076,-2.4 2.4,-2.4c1.325,0 2.4,1.075 2.4,2.4c0,29.869 -0.347,38.91 2.466,50.162c0.321,1.285 -0.461,2.59 -1.746,2.911c-1.285,0.321 -2.59,-0.461 -2.911,-1.746c-2.879,-11.515 -2.609,-20.763 -2.609,-51.327Z" style="fill:#282828;"/><path d="M137.081,264.553c0.364,-1.274 1.693,-2.012 2.967,-1.648c1.273,0.364 2.012,1.693 1.648,2.967c-0.335,1.172 -2.546,3.743 -7.01,17.135c-0.419,1.257 -1.779,1.937 -3.036,1.518c-1.256,-0.419 -1.936,-1.779 -1.517,-3.036c4.414,-13.242 6.617,-15.777 6.948,-16.936Z" style="fill:#282828;"/><path d="M138.063,267.24c-0.419,-1.257 0.261,-2.617 1.518,-3.036c1.257,-0.419 2.617,0.261 3.036,1.518c3.455,10.365 9.553,15.926 10.449,16.823c0.937,0.936 0.937,2.457 0,3.394c-0.936,0.936 -2.457,0.936 -3.394,-0c-0.996,-0.997 -7.769,-7.18 -11.609,-18.699Z" style="fill:#282828;"/><path d="M138.529,267.621c-1.155,-0.649 -1.565,-2.114 -0.915,-3.268c0.65,-1.155 2.114,-1.565 3.269,-0.915c10.885,6.126 12.796,6.361 22.345,11.053c1.189,0.584 1.68,2.023 1.095,3.212c-0.584,1.189 -2.023,1.68 -3.212,1.096c-9.651,-4.742 -11.58,-4.986 -22.582,-11.178Z" style="fill:#282828;"/><path d="M200.658,66.004c1.321,-0.089 2.466,0.912 2.555,2.234c0.089,1.321 -0.912,2.466 -2.234,2.555c-14.351,0.964 -33.077,-12.921 -23.473,-30.772c5.341,-9.928 14.386,-12.163 22.131,-11.849c4.325,0.175 8.216,1.16 10.714,1.953c1.007,-4.507 4.063,-13.222 13.261,-21.515c14.244,-12.844 37.869,-10.905 47.728,3.065c6.869,9.732 4.927,20.451 2.967,26.343c2.766,-0.449 6.384,-0.741 9.814,-0.12c5.091,0.921 9.766,3.709 11.351,10.287c2.574,10.676 -5.639,18.836 -17.587,20.576c-21.336,3.109 -39.255,4.793 -62.118,2.06c-1.316,-0.158 -2.256,-1.353 -2.098,-2.668c0.157,-1.316 1.352,-2.256 2.668,-2.098c22.399,2.677 39.953,1.002 60.856,-2.043c8.844,-1.289 15.518,-6.8 13.613,-14.702c-1.043,-4.328 -4.19,-6.083 -7.539,-6.689c-5.781,-1.046 -12.196,1.028 -12.196,1.028c-0.936,0.3 -1.96,-0.002 -2.585,-0.76c-0.624,-0.759 -0.723,-1.822 -0.249,-2.683c-0,0 7.639,-13.78 -0.818,-25.764c-8.381,-11.874 -28.484,-13.186 -40.592,-2.267c-11.468,10.34 -12.171,21.318 -12.171,21.318c-0.042,0.786 -0.467,1.501 -1.136,1.914c-0.67,0.413 -1.499,0.472 -2.22,0.157c-0,0 -5.371,-2.334 -11.858,-2.596c-6.175,-0.251 -13.45,1.411 -17.709,9.327c-7.527,13.992 7.676,24.464 18.925,23.709Z" style="fill:#282828;"/><path d="M57.713,242.446c-24.438,6.548 -49.594,-7.976 -56.142,-32.414c-6.548,-24.438 7.976,-49.594 32.414,-56.142c0.671,-0.18 1.343,-0.344 2.015,-0.493c-0.818,-33.437 21.236,-64.376 54.958,-73.411c39.535,-10.594 80.234,12.903 90.827,52.439c1.569,5.855 2.39,11.736 2.522,17.542c0.658,-0.23 1.329,-0.436 2.013,-0.619c15.097,-4.046 30.639,4.927 34.684,20.025c4.046,15.097 -4.927,30.639 -20.025,34.685l-143.266,38.388Zm84.323,-65.867c2.902,8.079 8.981,13.286 14.261,11.871c5.281,-1.415 7.941,-8.964 6.415,-17.411c-2.053,-4.909 -7.476,-7.67 -12.756,-6.255c-5.281,1.415 -8.597,6.518 -7.92,11.795Zm-31.338,8.397c2.901,8.079 8.98,13.286 14.261,11.872c5.28,-1.415 7.94,-8.965 6.414,-17.412c-2.052,-4.909 -7.475,-7.67 -12.756,-6.255c-5.28,1.415 -8.596,6.518 -7.919,11.795Z" style="fill:#282828;"/><path d="M179.425,74.927c0,-1.325 1.076,-2.4 2.4,-2.4c1.325,-0 2.4,1.075 2.4,2.4c0,2.385 -0.069,19.377 -5.072,29.384c-0.593,1.185 -2.035,1.666 -3.22,1.073c-1.185,-0.592 -1.666,-2.035 -1.073,-3.22c4.634,-9.268 4.565,-25.028 4.565,-27.237Z" style="fill:#282828;"/><path d="M202.618,80.858c0.051,-1.324 1.167,-2.357 2.49,-2.306c1.324,0.051 2.357,1.167 2.306,2.491c-0.572,14.893 -1.285,14.688 -4.888,29.102c-0.165,0.657 -4.623,15.095 -5.302,16.454c-0.593,1.184 -2.035,1.665 -3.22,1.073c-1.185,-0.593 -1.666,-2.035 -1.074,-3.22c0.639,-1.276 4.784,-14.854 4.939,-15.471c3.483,-13.931 4.195,-13.729 4.749,-28.123Z" style="fill:#282828;"/><path d="M224.008,89.184c0.11,-1.32 1.271,-2.302 2.591,-2.192c1.32,0.11 2.303,1.271 2.193,2.591c-0.213,2.55 -0.866,10.52 -6.087,31.404c-0.44,1.759 -5.134,20.334 -5.904,21.875c-0.593,1.185 -2.036,1.666 -3.22,1.074c-1.185,-0.593 -1.666,-2.036 -1.074,-3.22c0.735,-1.471 5.122,-19.215 5.541,-20.893c5.094,-20.378 5.753,-28.15 5.96,-30.639Z" style="fill:#282828;"/><path d="M235.305,119.84c0.051,-0.275 0.585,-3.198 0.981,-6.23c1.103,-8.458 2.512,-22.564 1.339,-27.259c-0.321,-1.285 0.461,-2.589 1.746,-2.91c1.285,-0.321 2.589,0.461 2.91,1.746c1.251,5 -0.061,20.035 -1.235,29.043c-0.545,4.174 -1.148,7.133 -1.356,7.55c-0.592,1.184 -2.035,1.665 -3.22,1.073c-1.116,-0.558 -1.607,-1.872 -1.165,-3.013Z" style="fill:#282828;"/><path d="M253.817,105.346c-0,-1.325 1.075,-2.4 2.4,-2.4c1.325,0 2.4,1.075 2.4,2.4c-0,20.256 -0.677,20.111 -2.114,40.228c-0.095,1.321 -1.244,2.317 -2.565,2.223c-1.322,-0.094 -2.318,-1.244 -2.223,-2.565c1.425,-19.946 2.102,-19.802 2.102,-39.886Z" style="fill:#282828;"/><path d="M269.804,82.719c0.187,-1.311 1.404,-2.224 2.715,-2.036c1.311,0.187 2.224,1.404 2.036,2.715c-1.597,11.185 2.313,30.531 2.913,32.333c0.419,1.256 -0.261,2.617 -1.518,3.036c-1.256,0.418 -2.617,-0.262 -3.035,-1.518c-0.642,-1.925 -4.818,-22.585 -3.111,-34.53Z" style="fill:#282828;"/><path d="M282.984,96.48c-0.593,-1.184 -0.112,-2.627 1.073,-3.22c1.185,-0.592 2.628,-0.111 3.22,1.074c0.549,1.098 1.204,4.949 1.777,10.099c1.218,10.937 2.518,28.229 4.127,34.666c0.321,1.285 -0.461,2.589 -1.746,2.91c-1.285,0.321 -2.589,-0.461 -2.911,-1.746c-1.638,-6.555 -3,-24.161 -4.24,-35.299c-0.48,-4.311 -0.841,-7.565 -1.3,-8.484Z" style="fill:#282828;"/></g></svg>