<?xml version="1.0" encoding="UTF-8" standalone="no"?><!DOCTYPE svg PUBLIC "-//W3C//DTD SVG 1.1//EN" "http://www.w3.org/Graphics/SVG/1.1/DTD/svg11.dtd"><svg width="100%" height="100%" viewBox="0 0 223 208" version="1.1" xmlns="http://www.w3.org/2000/svg" xmlns:xlink="http://www.w3.org/1999/xlink" xml:space="preserve" xmlns:serif="http://www.serif.com/" style="fill-rule:evenodd;clip-rule:evenodd;stroke-linejoin:round;stroke-miterlimit:2;"><g><path d="M45.84,148.32c-25.3,-0 -45.84,-20.54 -45.84,-45.84c0,-25.3 20.54,-45.84 45.84,-45.84c0.695,-0 1.387,0.016 2.074,0.046c7.864,-32.51 37.174,-56.686 72.086,-56.686c40.93,0 74.16,33.23 74.16,74.16c0,6.062 -0.729,11.956 -2.104,17.597c0.695,-0.051 1.396,-0.077 2.104,-0.077c15.63,-0 28.32,12.69 28.32,28.32c0,15.63 -12.69,28.32 -28.32,28.32l-148.32,-0Zm109.2,-91.68c-5.961,0 -10.8,7.85 -10.8,17.52c0,9.67 4.839,17.52 10.8,17.52c5.961,-0 10.8,-7.85 10.8,-17.52c0,-9.67 -4.839,-17.52 -10.8,-17.52Zm-32.444,0c-5.961,0 -10.8,7.85 -10.8,17.52c-0,9.67 4.839,17.52 10.8,17.52c5.961,-0 10.8,-7.85 10.8,-17.52c-0,-9.67 -4.839,-17.52 -10.8,-17.52Z" style="fill:#282828;"/><path d="M153.033,187.052c-4.811,-10.443 -6.408,-19.81 -12.233,-49.141c-0.258,-1.299 0.587,-2.563 1.886,-2.821c1.3,-0.258 2.564,0.587 2.822,1.886c5.673,28.565 7.165,37.773 11.825,47.938c11.263,3.66 13.306,3.577 23.384,6.265c1.28,0.341 2.042,1.657 1.701,2.937c-0.342,1.28 -1.658,2.042 -2.938,1.701c-8.05,-2.147 -11.027,-2.549 -17.539,-4.449c4.685,6.185 9.521,9.116 10.379,9.69c1.101,0.736 1.397,2.228 0.661,3.329c-0.737,1.101 -2.228,1.397 -3.329,0.661c-1.049,-0.701 -7.447,-4.577 -13.088,-12.949c-0.62,2.675 -1.391,6.728 -2.182,12.993c-0.167,1.314 -1.368,2.246 -2.682,2.08c-1.315,-0.166 -2.247,-1.368 -2.081,-2.682c1.539,-12.173 3.013,-15.899 3.414,-17.438Zm-63.327,3.642c-3.198,4.929 -8.76,12.684 -9.208,13.281c-0.795,1.059 -2.301,1.274 -3.36,0.479c-1.06,-0.795 -1.275,-2.301 -0.48,-3.36c0.564,-0.751 9.924,-13.58 10.7,-15.737c0.379,-1.054 1.421,-1.68 2.488,-1.577c0.243,-4.181 0.585,-9.275 0.769,-11.043c2.705,-26.09 6.071,-38.779 6.946,-47.219c0.136,-1.318 1.317,-2.277 2.634,-2.14c1.318,0.136 2.277,1.317 2.14,2.635c-0.875,8.44 -4.241,21.129 -6.946,47.219c-0.208,2.012 -0.629,8.439 -0.86,12.716c0.057,0.118 0.105,0.243 0.143,0.373c0.116,0.397 0.504,0.78 0.965,1.239c1.129,1.123 2.788,2.325 4.623,3.562c2.983,2.01 6.415,4.079 9.063,5.959c2.038,1.447 3.636,2.839 4.446,4.01c0.754,1.09 0.482,2.586 -0.608,3.34c-1.089,0.753 -2.585,0.481 -3.339,-0.608c-0.586,-0.847 -1.805,-1.782 -3.278,-2.828c-2.619,-1.86 -6.015,-3.904 -8.966,-5.892c-0.952,-0.641 -1.858,-1.279 -2.687,-1.904c0.684,3.831 1.63,5.245 2.266,10.377c0.163,1.315 -0.772,2.514 -2.087,2.677c-1.314,0.163 -2.514,-0.772 -2.676,-2.086c-0.786,-6.342 -2.019,-7.108 -2.688,-13.473Z" style="fill:#282828;"/></g></svg>