<?xml version="1.0" encoding="UTF-8" standalone="no"?><!DOCTYPE svg PUBLIC "-//W3C//DTD SVG 1.1//EN" "http://www.w3.org/Graphics/SVG/1.1/DTD/svg11.dtd"><svg width="100%" height="100%" viewBox="0 0 317 211" version="1.1" xmlns="http://www.w3.org/2000/svg" xmlns:xlink="http://www.w3.org/1999/xlink" xml:space="preserve" xmlns:serif="http://www.serif.com/" style="fill-rule:evenodd;clip-rule:evenodd;stroke-linejoin:round;stroke-miterlimit:2;"><g><path d="M148.649,161.712c-24.785,5.08 -49.031,-10.917 -54.111,-35.702c-5.08,-24.784 10.918,-49.03 35.702,-54.11c0.681,-0.14 1.362,-0.264 2.041,-0.372c1.177,-33.426 25.035,-62.996 59.236,-70.006c40.096,-8.218 79.322,17.663 87.54,57.759c1.218,5.939 1.687,11.859 1.473,17.661c0.67,-0.189 1.352,-0.356 2.045,-0.498c15.312,-3.138 30.292,6.745 33.43,22.057c3.138,15.312 -6.745,30.291 -22.057,33.43l-145.299,29.781Zm108.596,-56.272c0.822,-3.214 0.914,-7.076 0.093,-11.083c-1.942,-9.473 -8.259,-16.192 -14.098,-14.995c-5.839,1.197 -9.004,9.859 -7.062,19.332c0.821,4.007 2.426,7.522 4.446,10.152c1.434,-2.853 4.114,-5.047 7.483,-5.738c3.369,-0.69 6.696,0.272 9.138,2.332Zm-31.784,6.514c0.823,-3.213 0.915,-7.075 0.094,-11.083c-1.942,-9.472 -8.259,-16.191 -14.098,-14.994c-5.84,1.196 -9.004,9.859 -7.062,19.331c0.821,4.008 2.425,7.522 4.445,10.153c1.435,-2.854 4.115,-5.048 7.484,-5.738c3.369,-0.691 6.696,0.272 9.137,2.331Z" style="fill:#282828;"/><g><path d="M238.843,192.733c-1.129,2.504 -2.675,6.329 -4.672,12.319c-0.419,1.257 -1.779,1.937 -3.036,1.518c-1.256,-0.419 -1.937,-1.779 -1.518,-3.036c3.88,-11.64 6.052,-15.007 6.746,-16.438c-2.685,-11.181 -2.427,-20.679 -2.427,-50.583c0,-1.324 1.075,-2.4 2.4,-2.4c1.325,0 2.4,1.076 2.4,2.4c0,29.123 -0.33,38.445 2.261,49.323c10.333,5.784 12.354,6.1 21.715,10.7c1.189,0.584 1.68,2.023 1.096,3.212c-0.584,1.189 -2.023,1.68 -3.212,1.096c-7.478,-3.674 -10.32,-4.648 -16.337,-7.78c3.39,6.979 7.563,10.796 8.292,11.526c0.937,0.936 0.937,2.457 0,3.394c-0.936,0.936 -2.457,0.936 -3.394,-0c-0.892,-0.892 -6.412,-5.94 -10.314,-15.251Zm-46.01,1.498c-2.263,5.421 -6.347,14.047 -6.68,14.715c-0.593,1.185 -2.036,1.665 -3.22,1.073c-1.185,-0.592 -1.666,-2.035 -1.074,-3.22c0.42,-0.839 7.332,-15.138 7.708,-17.399c0.184,-1.104 1.098,-1.907 2.165,-1.997c-0.509,-4.157 -1.085,-9.23 -1.221,-11.002c-2.012,-26.153 -0.973,-39.239 -1.624,-47.7c-0.102,-1.321 0.888,-2.475 2.209,-2.577c1.321,-0.102 2.475,0.888 2.577,2.209c0.651,8.46 -0.388,21.547 1.624,47.7c0.155,2.017 0.892,8.415 1.431,12.664c0.077,0.106 0.147,0.22 0.208,0.342c0.185,0.37 0.635,0.677 1.17,1.046c1.312,0.902 3.16,1.788 5.187,2.676c3.295,1.443 7.042,2.864 9.984,4.239c2.264,1.059 4.086,2.143 5.093,3.15c0.936,0.936 0.936,2.457 -0,3.394c-0.937,0.936 -2.458,0.936 -3.394,-0c-0.729,-0.728 -2.095,-1.43 -3.732,-2.195c-2.91,-1.361 -6.618,-2.764 -9.877,-4.191c-1.051,-0.46 -2.057,-0.925 -2.984,-1.392c1.359,3.646 2.543,4.869 4.088,9.804c0.396,1.264 -0.309,2.611 -1.573,3.007c-1.264,0.396 -2.612,-0.309 -3.008,-1.573c-1.909,-6.099 -3.259,-6.631 -5.057,-12.773Z" style="fill:#282828;"/></g><path d="M46.996,113.634c-8.6,-4.663 -25.461,-14.133 -33.627,-22.702c-0.645,-0.677 -0.838,-1.667 -0.495,-2.537c0.344,-0.87 1.162,-1.461 2.096,-1.514c3.92,-0.224 34.744,2.355 59.321,8.932c1.28,0.342 2.04,1.659 1.698,2.939c-0.342,1.279 -1.659,2.04 -2.939,1.698c-18.454,-4.939 -40.516,-7.607 -51.421,-8.472c11.137,9.063 28.77,17.978 32.337,19.969c0.426,0.237 0.708,0.413 0.836,0.506l0.437,0.393l0.415,0.654l0.182,0.695l-0.045,0.785l-0.368,0.838l-0.689,0.663l-0.81,0.327c-10.2,2.091 -30.782,10.228 -42.177,15.318c13.502,-0.4 33.996,-2.691 37.681,-2.325l1.078,0.235l0.864,0.534l0.549,0.74l0.226,0.741l0.006,0.628l-0.127,0.543l-0.369,0.682l-0.494,0.5c-7.968,6.259 -17.061,17.2 -22.114,24.477c-0.516,0.744 -1.008,1.512 -1.452,2.241c0.029,-0.011 0.058,-0.022 0.087,-0.034c11.294,-4.388 37.582,-16.149 49.541,-21.622c3.066,-1.403 5.548,-2.585 5.872,-2.74c0.77,-0.475 1.779,-0.493 2.584,0.038c1.106,0.73 1.411,2.22 0.681,3.325l-0.761,0.735c-0.14,0.087 -0.802,0.422 -1.901,0.938c-7.65,3.592 -39.36,17.892 -53.157,23.361c-2.51,0.994 -4.451,1.703 -5.587,2.027c-0.87,0.247 -1.489,0.293 -1.798,0.269l-0.89,-0.223l-0.868,-0.625l-0.442,-0.66l-0.246,-0.875c-0.069,-0.604 0.172,-1.906 1.074,-3.611c2.826,-5.337 12.36,-17.948 21.684,-26.701c-10.817,0.685 -33.074,2.968 -41.246,1.986l-1.048,-0.36l-0.66,-0.589l-0.372,-0.679l-0.142,-0.74l0.088,-0.744l0.291,-0.665l0.476,-0.577c0.164,-0.155 0.424,-0.361 0.788,-0.594c4.048,-2.586 29.68,-13.532 45.353,-18.128Z" style="fill:#282828;"/></g></svg>