<?xml version="1.0" encoding="UTF-8" standalone="no"?><!DOCTYPE svg PUBLIC "-//W3C//DTD SVG 1.1//EN" "http://www.w3.org/Graphics/SVG/1.1/DTD/svg11.dtd"><svg width="100%" height="100%" viewBox="0 0 224 212" version="1.1" xmlns="http://www.w3.org/2000/svg" xmlns:xlink="http://www.w3.org/1999/xlink" xml:space="preserve" xmlns:serif="http://www.serif.com/" style="fill-rule:evenodd;clip-rule:evenodd;stroke-linejoin:round;stroke-miterlimit:2;"><g><path d="M47.863,151.52c-25.275,1.116 -46.702,-18.498 -47.818,-43.773c-1.116,-25.275 18.499,-46.702 43.774,-47.818c0.694,-0.03 1.386,-0.045 2.074,-0.045c6.423,-32.825 34.637,-58.271 69.515,-59.811c40.89,-1.805 75.554,29.927 77.359,70.817c0.268,6.056 -0.201,11.976 -1.326,17.673c0.692,-0.082 1.392,-0.139 2.099,-0.17c15.615,-0.689 28.852,11.428 29.542,27.043c0.689,15.615 -11.429,28.852 -27.044,29.542l-148.175,6.542Zm116.099,-38.48c1.317,-3.044 2.016,-6.843 1.836,-10.93c-0.426,-9.66 -5.607,-17.289 -11.562,-17.027c-5.955,0.263 -10.443,8.32 -10.017,17.98c0.181,4.086 1.212,7.81 2.793,10.726c1.866,-2.593 4.857,-4.337 8.293,-4.489c3.436,-0.152 6.57,1.322 8.657,3.74Zm-32.413,1.431c1.318,-3.044 2.017,-6.843 1.836,-10.93c-0.426,-9.66 -5.607,-17.289 -11.562,-17.026c-5.955,0.262 -10.443,8.319 -10.017,17.979c0.181,4.087 1.212,7.81 2.793,10.726c1.866,-2.593 4.858,-4.337 8.293,-4.489c3.436,-0.152 6.57,1.322 8.657,3.74Z" style="fill:#282828;"/><path d="M138.891,194.259c-1.129,2.504 -2.675,6.329 -4.672,12.319c-0.419,1.257 -1.779,1.937 -3.036,1.518c-1.256,-0.419 -1.937,-1.779 -1.518,-3.036c3.88,-11.64 6.052,-15.007 6.746,-16.438c-2.685,-11.181 -2.427,-20.679 -2.427,-50.583c-0,-1.324 1.075,-2.4 2.4,-2.4c1.325,0 2.4,1.076 2.4,2.4c-0,29.123 -0.33,38.445 2.261,49.323c10.333,5.784 12.354,6.1 21.715,10.7c1.189,0.584 1.68,2.023 1.096,3.212c-0.584,1.189 -2.023,1.68 -3.212,1.096c-7.478,-3.674 -10.32,-4.648 -16.337,-7.78c3.39,6.979 7.563,10.796 8.292,11.526c0.937,0.936 0.937,2.457 0,3.394c-0.936,0.936 -2.457,0.936 -3.394,-0c-0.892,-0.892 -6.413,-5.94 -10.314,-15.251Zm-46.01,1.498c-2.263,5.421 -6.347,14.047 -6.681,14.715c-0.592,1.185 -2.035,1.665 -3.219,1.073c-1.185,-0.592 -1.666,-2.035 -1.074,-3.22c0.42,-0.839 7.331,-15.138 7.708,-17.399c0.184,-1.104 1.098,-1.907 2.165,-1.997c-0.509,-4.157 -1.085,-9.23 -1.221,-11.002c-2.012,-26.153 -0.973,-39.239 -1.624,-47.7c-0.102,-1.321 0.888,-2.475 2.209,-2.577c1.321,-0.102 2.475,0.888 2.577,2.209c0.651,8.46 -0.388,21.547 1.624,47.7c0.155,2.017 0.892,8.415 1.431,12.664c0.077,0.106 0.147,0.22 0.208,0.342c0.185,0.37 0.635,0.677 1.17,1.046c1.312,0.902 3.16,1.788 5.187,2.676c3.295,1.443 7.042,2.864 9.984,4.239c2.264,1.059 4.086,2.142 5.093,3.149c0.936,0.937 0.936,2.458 -0,3.395c-0.937,0.936 -2.458,0.936 -3.395,-0c-0.728,-0.729 -2.094,-1.43 -3.731,-2.195c-2.91,-1.361 -6.618,-2.764 -9.877,-4.191c-1.051,-0.461 -2.057,-0.925 -2.984,-1.392c1.359,3.646 2.543,4.868 4.088,9.804c0.396,1.264 -0.309,2.611 -1.573,3.007c-1.265,0.396 -2.612,-0.309 -3.008,-1.573c-1.909,-6.099 -3.259,-6.631 -5.057,-12.773Z" style="fill:#282828;"/></g></svg>