<svg width="1553" height="263" viewBox="0 0 1553 263" fill="none" xmlns="http://www.w3.org/2000/svg">
<path fill-rule="evenodd" clip-rule="evenodd" d="M81.177 262.656C36.3724 262.656 0 226.284 0 181.479C0 136.675 36.3724 100.302 81.177 100.302C82.4095 100.302 83.6335 100.332 84.8491 100.383C98.7767 42.8155 150.679 0 212.505 0C284.986 0 343.833 58.8469 343.833 131.328C343.833 142.064 342.541 152.502 340.106 162.49C341.339 162.401 342.58 162.354 343.833 162.354C371.514 162.354 393.985 184.824 393.985 212.505C393.985 240.186 371.514 262.656 343.833 262.656H81.177ZM217.104 153.429C206.547 153.429 197.978 167.331 197.978 184.454C197.978 201.578 206.547 215.48 217.104 215.48C227.657 215.48 236.229 201.578 236.229 184.454C236.229 167.331 227.657 153.429 217.104 153.429ZM274.557 153.429C263.999 153.429 255.431 167.331 255.431 184.454C255.431 201.578 263.999 215.48 274.557 215.48C285.114 215.48 293.682 201.578 293.682 184.454C293.682 167.331 285.114 153.429 274.557 153.429Z" fill="#282828"/>
<path fill-rule="evenodd" clip-rule="evenodd" d="M462.93 200.961V74.6768L447.121 71.6456V56.584H482.216C485.538 56.584 488.932 56.4802 492.399 56.2622C495.866 56.0442 499.707 55.8264 503.931 55.6084C508.156 55.3904 513.045 55.3178 518.609 55.3904C534.49 55.3904 546.843 57.2692 555.645 61.0268C564.458 64.7844 570.655 70.234 574.225 77.3859C577.796 84.5274 579.592 93.2675 579.592 103.596C579.592 115.792 577.111 126.266 572.17 135.006C567.219 143.746 559.943 150.441 550.341 155.092C540.739 159.752 528.968 162.088 515.038 162.088C513.014 162.088 510.948 162.046 508.862 161.974C506.765 161.901 504.938 161.808 503.392 161.704C501.835 161.6 500.734 161.506 500.08 161.434V200.961L528.574 203.245V217.538H446.467V203.245L462.93 200.961ZM499.977 146.487C501.201 146.777 502.987 147.005 505.343 147.192C507.689 147.369 510.626 147.462 514.166 147.462C519.439 147.462 524.131 146.165 528.252 143.559C532.363 140.964 535.632 136.521 538.051 130.241C540.469 123.961 541.673 115.325 541.673 104.353C541.673 96.2673 540.667 89.6759 538.642 84.5792C536.618 79.493 533.567 75.7563 529.498 73.3793C525.418 70.9919 520.27 69.7979 514.062 69.7979C511.457 69.7979 509.329 69.8706 507.668 70.0159C506.007 70.1612 504.596 70.3275 503.443 70.504C502.291 70.6804 501.129 70.8879 499.977 71.0955V146.487ZM580.672 157.967C580.672 147.141 582.312 137.715 585.602 129.702C588.882 121.678 593.377 115.035 599.086 109.772C604.785 104.499 611.303 100.565 618.632 97.9594C625.96 95.3643 633.704 94.0668 641.862 94.0668C653.851 94.0668 664.2 96.4958 672.899 101.374C681.597 106.243 688.313 113.291 693.047 122.498C697.78 131.695 700.136 142.874 700.136 156.015C700.136 167.133 698.496 176.724 695.216 184.768C691.926 192.823 687.431 199.446 681.722 204.646C676.023 209.847 669.484 213.698 662.124 216.189C654.754 218.68 646.99 219.926 638.831 219.926C629.884 219.926 621.829 218.545 614.677 215.805C607.535 213.065 601.432 209.037 596.377 203.733C591.322 198.418 587.439 191.92 584.73 184.229C582.021 176.547 580.672 167.787 580.672 157.967ZM641.001 204.864C645.62 204.864 649.45 203.245 652.481 199.996C655.512 196.747 657.806 191.702 659.363 184.883C660.91 178.063 661.688 169.302 661.688 158.621C661.688 150.462 661.315 143.289 660.546 137.113C659.789 130.947 658.585 125.778 656.924 121.626C655.263 117.474 653.073 114.35 650.374 112.263C647.665 110.166 644.354 109.118 640.461 109.118C635.915 109.118 632.043 110.737 628.866 113.986C625.69 117.246 623.271 122.259 621.611 129.048C619.95 135.836 619.119 144.608 619.119 155.372C619.119 163.593 619.535 170.797 620.365 176.973C621.196 183.149 622.493 188.298 624.268 192.408C626.033 196.529 628.296 199.633 631.036 201.719C633.776 203.816 637.098 204.864 641.001 204.864ZM769.029 219.926C755.815 219.926 745.03 217.248 736.695 211.902C728.349 206.567 722.215 199.238 718.281 189.917C714.347 180.606 712.374 170.029 712.374 158.185C712.374 148.438 713.859 139.625 716.817 131.757C719.775 123.889 724 117.132 729.491 111.506C734.982 105.869 741.532 101.551 749.151 98.5613C756.77 95.5614 765.24 94.0668 774.551 94.0668C781.267 94.0668 786.935 94.5338 791.554 95.468C796.173 96.4126 800.097 97.3988 803.304 98.4472C806.522 99.4956 809.283 100.201 811.588 100.565L810.072 139.874H788.201L782.565 114.858C782.274 113.561 781.516 112.533 780.292 111.775C779.067 111.018 777.676 110.467 776.119 110.146C774.572 109.824 773.181 109.658 771.946 109.658C767.763 109.658 764.057 110.955 760.85 113.561C757.632 116.156 755.089 120.505 753.21 126.608C751.331 132.712 750.366 141.109 750.283 151.791C750.283 159.524 750.905 166.302 752.13 172.157C753.355 178.001 755.141 182.879 757.487 186.782C759.843 190.675 762.677 193.623 765.998 195.605C769.309 197.588 772.994 198.584 777.042 198.584C781.516 198.584 785.564 198.19 789.177 197.391C792.779 196.602 796.049 195.574 798.976 194.308C801.903 193.041 804.477 191.723 806.719 190.353L812.356 203.131C810.622 205.082 807.716 207.376 803.636 210.013C799.547 212.649 794.574 214.954 788.689 216.947C782.803 218.929 776.243 219.926 769.029 219.926ZM762.531 79.3271L728.951 33.5194L740.65 24.416L772.164 56.2622L803.367 24.634L815.273 33.5194L781.807 79.3271H762.531ZM858.713 219.926C852.143 219.926 846.07 218.473 840.517 215.587C834.953 212.701 830.49 208.497 827.137 202.975C823.774 197.443 822.103 190.747 822.103 182.879C822.103 176.309 823.846 170.548 827.355 165.607C830.853 160.655 835.763 156.545 842.084 153.254C848.406 149.974 855.838 147.483 864.391 145.781C872.955 144.089 882.287 143.196 892.397 143.123V138.899C892.397 133.926 891.867 129.857 890.829 126.723C889.781 123.578 887.715 121.252 884.653 119.737C881.581 118.211 877.045 117.453 871.055 117.453C862.751 117.453 855.516 118.574 849.34 120.816C843.164 123.048 838.347 124.969 834.88 126.557L827.303 110.851C829.171 109.336 832.628 107.26 837.642 104.623C842.666 101.987 848.831 99.5995 856.16 97.4715C863.488 95.3436 871.522 94.2744 880.262 94.2744C891.815 94.2744 900.877 95.9352 907.448 99.2569C914.019 102.579 918.7 107.53 921.482 114.101C924.253 120.671 925.644 128.902 925.644 138.795V202.913H936.803V216.563C935.142 216.926 932.62 217.362 929.225 217.86C925.831 218.369 922.198 218.826 918.337 219.22C914.475 219.615 910.988 219.812 907.884 219.812C902.32 219.812 898.656 219.002 896.891 217.372C895.116 215.753 894.234 212.66 894.234 208.113V203.131C892.428 205.446 889.864 207.916 886.542 210.553C883.221 213.189 879.235 215.411 874.574 217.217C869.924 219.023 864.63 219.926 858.713 219.926ZM875.498 200.1C878.166 200.1 881.093 199.321 884.269 197.775C887.445 196.218 890.155 194.36 892.397 192.19V157.645C884.456 157.645 878.041 158.673 873.173 160.728C868.294 162.783 864.775 165.461 862.606 168.741C860.447 172.032 859.357 175.582 859.357 179.412C859.357 183.741 860.031 187.446 861.36 190.519C862.699 193.581 864.578 195.948 866.997 197.609C869.415 199.27 872.249 200.1 875.498 200.1ZM994.423 219.926C986.773 219.926 979.891 219.324 973.787 218.13C967.694 216.947 962.442 215.639 958.03 214.238C953.629 212.826 950.089 211.829 947.422 211.258V182.443H967.891L973.413 199.446C974.057 200.463 975.344 201.46 977.254 202.425C979.175 203.401 981.406 204.2 983.97 204.812C986.534 205.425 989.077 205.736 991.61 205.736C995.72 205.736 999.115 205.134 1001.79 203.951C1004.46 202.757 1006.45 201.127 1007.75 199.072C1009.05 197.017 1009.7 194.723 1009.7 192.19C1009.7 188.37 1008.17 185.204 1005.09 182.713C1002.02 180.222 997.931 177.855 992.804 175.624C987.676 173.382 981.936 170.817 975.583 167.932C969.656 165.191 964.59 162.046 960.366 158.507C956.141 154.967 952.902 150.794 950.671 145.999C948.429 141.193 947.307 135.618 947.307 129.266C947.307 122.622 949.238 116.685 953.1 111.443C956.971 106.212 962.545 102.06 969.843 98.987C977.13 95.9249 985.87 94.3887 996.052 94.3887C1003.56 94.3887 1009.93 94.8764 1015.16 95.8522C1020.4 96.8279 1024.81 97.8139 1028.39 98.8311C1031.96 99.838 1034.97 100.492 1037.43 100.772V130.241H1018.04L1012.52 113.664C1012.01 112.803 1011.07 111.973 1009.7 111.173C1008.32 110.384 1006.65 109.71 1004.66 109.17C1002.68 108.63 1000.42 108.36 997.89 108.36C994.277 108.36 991.143 108.9 988.465 109.979C985.797 111.069 983.752 112.585 982.351 114.536C980.939 116.478 980.233 118.792 980.233 121.47C980.233 125.363 981.52 128.591 984.084 131.155C986.648 133.719 990.022 135.961 994.205 137.871C998.398 139.791 1002.84 141.753 1007.53 143.777C1012.08 145.729 1016.57 147.857 1021.02 150.172C1025.46 152.476 1029.47 155.133 1033.04 158.133C1036.62 161.122 1039.46 164.683 1041.6 168.793C1043.73 172.914 1044.79 177.782 1044.79 183.419C1044.79 189.989 1043.04 196.041 1039.53 201.564C1036.04 207.086 1030.57 211.528 1023.12 214.881C1015.69 218.244 1006.12 219.926 994.423 219.926ZM1053.78 157.967C1053.78 147.141 1055.43 137.715 1058.71 129.702C1062 121.678 1066.49 115.035 1072.19 109.772C1077.9 104.499 1084.42 100.565 1091.75 97.9594C1099.08 95.3643 1106.82 94.0668 1114.98 94.0668C1126.97 94.0668 1137.3 96.4958 1146 101.374C1154.71 106.243 1161.43 113.291 1166.15 122.498C1170.88 131.695 1173.25 142.874 1173.25 156.015C1173.25 167.133 1171.61 176.724 1168.32 184.768C1165.03 192.823 1160.54 199.446 1154.84 204.646C1149.13 209.847 1142.6 213.698 1135.23 216.189C1127.87 218.68 1120.11 219.926 1111.95 219.926C1102.99 219.926 1094.94 218.545 1087.79 215.805C1080.64 213.065 1074.54 209.037 1069.48 203.733C1064.44 198.418 1060.55 191.92 1057.85 184.229C1055.14 176.547 1053.78 167.787 1053.78 157.967ZM1114.11 204.864C1118.73 204.864 1122.55 203.245 1125.6 199.996C1128.63 196.747 1130.92 191.702 1132.47 184.883C1134.03 178.063 1134.8 169.302 1134.8 158.621C1134.8 150.462 1134.42 143.289 1133.66 137.113C1132.9 130.947 1131.69 125.778 1130.03 121.626C1128.37 117.474 1126.19 114.35 1123.48 112.263C1120.77 110.166 1117.47 109.118 1113.57 109.118C1109.02 109.118 1105.16 110.737 1101.98 113.986C1098.81 117.246 1096.39 122.259 1094.73 129.048C1093.07 135.836 1092.23 144.608 1092.23 155.372C1092.23 163.593 1092.65 170.797 1093.48 176.973C1094.31 183.149 1095.61 188.298 1097.37 192.408C1099.15 196.529 1101.4 199.633 1104.15 201.719C1106.89 203.816 1110.21 204.864 1114.11 204.864ZM1222.96 219.272L1181.7 113.664L1172.17 110.955V97.0977H1233.68V110.955L1221.23 113.664L1237.69 170.745L1243.22 190.457L1247.87 171.077L1266.4 113.664L1253.19 110.955V97.0977H1303.33V110.955L1291.96 113.664L1251.88 219.272H1222.96ZM1301.06 217.538V203.245L1312.97 201.179V61.1307L1298.03 58.2138V45.1036L1341.35 40.0174H1341.9L1348.18 44.564V146.05L1347.64 156.669L1387.92 113.343L1371.79 110.955V97.0977H1431.15V110.955L1413.17 113.779L1389.12 138.037L1425.83 201.294L1437.1 203.245V217.538H1376.56V203.245L1386.62 201.179L1364.42 160.24L1347.42 177.461L1348.06 188.08V201.179L1360.42 203.245V217.538H1301.06ZM1474.14 219.926C1467.57 219.926 1461.51 218.473 1455.94 215.587C1450.39 212.701 1445.93 208.497 1442.57 202.975C1439.21 197.443 1437.53 190.747 1437.53 182.879C1437.53 176.309 1439.28 170.548 1442.78 165.607C1446.29 160.655 1451.2 156.545 1457.51 153.254C1463.83 149.974 1471.27 147.483 1479.83 145.781C1488.38 144.089 1497.71 143.196 1507.82 143.123V138.899C1507.82 133.926 1507.3 129.857 1506.26 126.723C1505.21 123.578 1503.15 121.252 1500.08 119.737C1497.02 118.211 1492.48 117.453 1486.49 117.453C1478.19 117.453 1470.94 118.574 1464.78 120.816C1458.6 123.048 1453.78 124.969 1450.32 126.557L1442.73 110.851C1444.61 109.336 1448.05 107.26 1453.08 104.623C1458.09 101.987 1464.27 99.5995 1471.6 97.4715C1478.93 95.3436 1486.96 94.2744 1495.7 94.2744C1507.25 94.2744 1516.31 95.9352 1522.88 99.2569C1529.46 102.579 1534.13 107.53 1536.91 114.101C1539.69 120.671 1541.08 128.902 1541.08 138.795V202.913H1552.24V216.563C1550.58 216.926 1548.05 217.362 1544.65 217.86C1541.26 218.369 1537.63 218.826 1533.76 219.22C1529.9 219.615 1526.42 219.812 1523.32 219.812C1517.76 219.812 1514.09 219.002 1512.33 217.372C1510.55 215.753 1509.67 212.66 1509.67 208.113V203.131C1507.86 205.446 1505.3 207.916 1501.98 210.553C1498.66 213.189 1494.67 215.411 1490.01 217.217C1485.35 219.023 1480.07 219.926 1474.14 219.926ZM1490.93 200.1C1493.6 200.1 1496.53 199.321 1499.71 197.775C1502.88 196.218 1505.59 194.36 1507.82 192.19V157.645C1499.88 157.645 1493.48 158.673 1488.6 160.728C1483.73 162.783 1480.21 165.461 1478.04 168.741C1475.87 172.032 1474.79 175.582 1474.79 179.412C1474.79 183.741 1475.46 187.446 1476.8 190.519C1478.14 193.581 1480 195.948 1482.42 197.609C1484.85 199.27 1487.69 200.1 1490.93 200.1Z" fill="#282828"/>
</svg>
