<svg width="25" height="20" viewBox="0 0 25 20" fill="none" xmlns="http://www.w3.org/2000/svg">
<path fill-rule="evenodd" clip-rule="evenodd" d="M24.3344 8.77815C24.3759 8.81959 24.4123 8.86441 24.4449 8.91074C24.4683 8.944 24.4905 8.97824 24.5098 9.01432C24.534 9.05958 24.5532 9.10675 24.5699 9.15449C24.5852 9.1982 24.5987 9.2429 24.6079 9.28915C24.6468 9.48444 24.6269 9.68895 24.5485 9.87472C24.528 9.92306 24.5028 9.96873 24.4753 10.0128C24.4357 10.0763 24.3896 10.1372 24.3344 10.1924L15.8491 18.6776C15.4586 19.0682 14.8255 19.0682 14.4349 18.6776C14.0445 18.2871 14.0444 17.6539 14.4349 17.2634L21.2132 10.4852H0.999904C0.447669 10.4851 1.05354e-05 10.0375 1.06618e-05 9.48526C7.27915e-05 8.93306 0.447707 8.48542 0.999904 8.48537H21.2132L14.4349 1.70709C14.0445 1.31655 14.0444 0.68336 14.4349 0.292872C14.8254 -0.0976107 15.4586 -0.0975439 15.8491 0.292872L24.3344 8.77815Z" fill="#282828"/>
</svg>
