<svg width="18" height="18" viewBox="0 0 18 18" fill="none" xmlns="http://www.w3.org/2000/svg">
<path fill-rule="evenodd" clip-rule="evenodd" d="M16.9999 0C17.0562 2.88347e-08 17.1112 0.00571332 17.165 0.0146484C17.1737 0.0161084 17.1826 0.0168607 17.1913 0.0185547L17.2011 0.0205078C17.2109 0.0225203 17.2206 0.0250439 17.2304 0.0273438C17.251 0.032196 17.2716 0.0367993 17.2919 0.0429688C17.3407 0.057833 17.3872 0.0778026 17.4325 0.0996094C17.4466 0.106345 17.4608 0.11269 17.4745 0.120117C17.6202 0.198874 17.7441 0.312548 17.8349 0.450195C17.8596 0.487681 17.8811 0.526617 17.9003 0.566406C17.9221 0.61159 17.9411 0.65838 17.956 0.707031C17.9622 0.727318 17.9667 0.747986 17.9716 0.768555C17.9893 0.842936 17.9999 0.92022 17.9999 1V13C17.9999 13.5523 17.5522 14 16.9999 14C16.4476 14 15.9999 13.5523 15.9999 13V3.41406L1.70696 17.707C1.31643 18.0976 0.683417 18.0976 0.292893 17.707C-0.0976308 17.3165 -0.097631 16.6835 0.292893 16.293L14.5859 2H4.99992C4.44764 2 3.99992 1.55228 3.99992 1C3.99992 0.447715 4.44764 2.41411e-08 4.99992 0H16.9999Z" fill="#282828"/>
</svg>
